<svg width="118" height="70" viewBox="0 0 118 70" fill="none" xmlns="http://www.w3.org/2000/svg">
<path d="M53.0145 23.7519C53.0145 28.1432 49.4328 31.7031 45.0145 31.7031L24.5382 31.703C24.0348 31.703 23.5499 31.8917 23.1803 32.2314L11.4569 43.0068C10.1762 44.1839 8.09895 43.2811 8.09895 41.5474V33.3129C8.09895 32.4238 7.37375 31.703 6.47916 31.703C2.90082 31.703 -3.11462e-07 28.82 0 25.2635L1.51615e-06 7.95112C1.90072e-06 3.55983 3.58173 -3.85582e-07 8 0L45.0145 3.23025e-06C49.4328 3.61583e-06 53.0145 3.55984 53.0145 7.95113L53.0145 23.7519Z" fill="#A1E8A8"/>
<path d="M64.9855 50.2129C64.9855 54.6042 68.5672 58.164 72.9855 58.164L93.4617 58.164C93.9652 58.164 94.4501 58.3527 94.8196 58.6924L106.543 69.4677C107.824 70.6448 109.901 69.7421 109.901 68.0083V59.7739C109.901 58.8848 110.626 58.164 111.521 58.164C115.099 58.164 118 55.2809 118 51.7244L118 34.4121C118 30.0208 114.418 26.4609 110 26.4609L72.9855 26.4609C68.5672 26.4609 64.9855 30.0208 64.9855 34.4121L64.9855 50.2129Z" fill="#A6E3CB"/>
<path d="M78.6667 18.7786C78.6667 12.6502 73.6899 7.68213 67.5507 7.68213" stroke="#72C87A" stroke-width="3" stroke-linecap="round"/>
<path d="M66.037 3.46738C66.7035 3.06816 67.5508 3.54832 67.5508 4.32527V11.039C67.5508 11.8159 66.7035 12.2961 66.037 11.8969L60.4324 8.54002C59.7842 8.15177 59.7842 7.21249 60.4324 6.82424L66.037 3.46738Z" fill="#72C87A"/>
<path d="M41.0435 38.4109C41.0435 44.5394 46.0203 49.5074 52.1594 49.5074" stroke="#78C4A6" stroke-width="3" stroke-linecap="round"/>
<path d="M53.6733 53.7222C53.0067 54.1214 52.1594 53.6413 52.1594 52.8643V46.1506C52.1594 45.3736 53.0067 44.8935 53.6733 45.2927L59.2778 48.6496C59.926 49.0378 59.926 49.9771 59.2778 50.3653L53.6733 53.7222Z" fill="#78C4A6"/>
<path d="M83.7971 43.705C83.7971 43.2991 83.821 42.8693 83.869 42.4156C84.1209 40.3623 84.7686 38.5417 85.8121 36.9539C87.0835 35.02 88.6128 34.053 90.4 34.053C91.1676 34.053 91.8393 34.2022 92.415 34.5007C92.6549 34.2141 92.9847 34.0649 93.4046 34.053C93.6444 34.053 93.7944 34.0709 93.8543 34.1067C94.3701 34.2738 94.628 34.7812 94.628 35.6288C94.628 35.975 94.568 36.7212 94.4481 37.8672C94.0762 41.2576 93.8903 43.3647 93.8903 44.1885C93.8903 44.7376 94.0043 45.2509 94.2322 45.7285C94.568 46.4448 95.0118 46.8029 95.5635 46.8029C95.6715 46.8029 95.7854 46.791 95.9054 46.7671C96.2652 46.6955 96.781 46.4209 97.4527 45.9434C98.1123 45.4658 98.6401 45.2271 99.0359 45.2271C99.1918 45.2271 99.3538 45.2808 99.5217 45.3882C99.8695 45.627 100.043 45.9434 100.043 46.3373C100.007 46.9581 99.5337 47.6028 98.6221 48.2713C97.5306 49.0353 96.3732 49.4174 95.1497 49.4174C93.6384 49.4054 92.523 48.6473 91.8033 47.1431C91.6354 47.3461 91.4435 47.549 91.2276 47.752C90.0401 48.8622 88.8347 49.4174 87.6113 49.4174C86.8436 49.4174 86.1779 49.2204 85.6142 48.8264C84.4028 47.943 83.7971 46.2358 83.7971 43.705ZM91.7133 37.8135C91.7133 37.8135 91.7553 37.4076 91.8393 36.5958C91.5754 36.4645 91.2995 36.3988 91.0117 36.3988C90.7958 36.3988 90.5739 36.4287 90.346 36.4884C89.2305 36.7987 88.289 37.8254 87.5213 39.5684C86.8376 41.1323 86.4958 42.7022 86.4958 44.278C86.4958 44.3377 86.4958 44.3974 86.4958 44.4571C86.5318 45.9135 86.9036 46.6417 87.6113 46.6417C87.9831 46.6298 88.4389 46.4269 88.9786 46.0329C89.5304 45.6389 89.9322 45.2689 90.1841 44.9227C90.34 44.6958 90.5499 44.0333 90.8138 42.935C91.2935 40.8935 91.5934 39.1864 91.7133 37.8135Z" fill="#78C4A6"/>
<path d="M34.6299 8.59972C35.4584 8.59972 36.1299 9.26719 36.1299 10.0906C36.1299 10.9139 35.4584 11.5814 34.6299 11.5814H32.8506C32.1025 14.2231 30.2221 16.994 28.2647 19.3598C25.93 22.1814 23.253 24.7002 21.4844 26.1714C20.8492 26.6998 19.9029 26.6164 19.3712 25.985C18.8396 25.3537 18.9235 24.4131 19.5587 23.8847C21.2104 22.5106 23.7502 20.1216 25.9473 17.4661C27.6369 15.4241 28.9987 13.3708 29.6924 11.5814H18.8116C17.9832 11.5814 17.3116 10.9139 17.3116 10.0906C17.3116 9.26719 17.9832 8.59972 18.8116 8.59972H34.6299Z" fill="#72C87A"/>
<path d="M24.3936 13.3515C25.5692 15.4225 27.5185 18.2977 29.5323 20.2515C30.5511 21.2399 31.4712 21.8779 32.2158 22.1344C32.8675 22.3588 33.2595 22.2687 33.625 21.9403C34.2396 21.3885 35.1878 21.4364 35.7432 22.0471C36.2985 22.6578 36.2509 23.6002 35.6367 24.1523C34.2922 25.3603 32.6881 25.4521 31.2334 24.9511C29.8716 24.482 28.5732 23.4876 27.4366 22.3848C25.1394 20.1561 23.0273 17.0129 21.7803 14.8161L24.3936 13.3515ZM22.3496 12.7856C23.0712 12.3811 23.9865 12.6344 24.3936 13.3515L21.7803 14.8161C21.3736 14.0992 21.6284 13.1902 22.3496 12.7856ZM25.0069 9.38952V5.97497C25.0069 5.15172 25.6786 4.48433 26.5069 4.48413C27.3353 4.48413 28.0069 5.1516 28.0069 5.97497V9.38952C28.0067 10.2128 27.3352 10.8804 26.5069 10.8804C25.6787 10.8802 25.007 10.2127 25.0069 9.38952Z" fill="#72C87A"/>
</svg>
